<svg xmlns="http://www.w3.org/2000/svg" width="64" height="64" viewBox="0 0 64 64" fill="none" stroke="#FFFFFF" stroke-width="5" stroke-linejoin="round" stroke-linecap="round"><path d="M28.26 14.39 L28.95 7.19 L35.05 7.19 L35.74 14.39 L41.80 16.90 L47.39 12.30 L51.70 16.61 L47.10 22.20 L49.61 28.26 L56.81 28.95 L56.81 35.05 L49.61 35.74 L47.10 41.80 L51.70 47.39 L47.39 51.70 L41.80 47.10 L35.74 49.61 L35.05 56.81 L28.95 56.81 L28.26 49.61 L22.20 47.10 L16.61 51.70 L12.30 47.39 L16.90 41.80 L14.39 35.74 L7.19 35.05 L7.19 28.95 L14.39 28.26 L16.90 22.20 L12.30 16.61 L16.61 12.30 L22.20 16.90 Z"></path><circle cx="32" cy="32" r="7"></circle></svg>